<svg xmlns="http://www.w3.org/2000/svg" width="256" height="256" viewBox="0 0 100 100"><rect width="100" height="100" rx="0" fill="#028090"></rect><path d="M51.76 56.37L51.76 56.37L51.95 57.30Q51.95 57.89 51.34 58.69L51.34 58.69Q49.73 60.79 46.18 63.51Q42.63 66.24 40.94 66.24Q39.26 66.24 38.31 65.25Q37.35 64.26 37.35 62.99L37.35 62.99Q37.35 61.47 40.53 56.30L40.53 56.30Q45.29 48.61 52.69 38.33L52.69 38.33Q51.12 39.94 44.38 47.02L44.38 47.02Q29.47 62.65 26.95 64.72L26.95 64.72Q26.54 65.06 25.74 65.06Q24.95 65.06 24.07 64.42Q23.19 63.77 23.19 62.96L23.19 62.96L23.19 62.84Q23.29 61.82 27.91 52.81Q32.52 43.80 35.64 38.48L35.64 38.48Q31.03 43.55 26.32 49.80L26.32 49.80Q17.36 61.67 13.21 70.02L13.21 70.02Q12.84 70.80 12.30 70.80Q11.77 70.80 10.74 70.53L10.74 70.53Q8.59 69.95 8.59 68.48L8.59 68.48Q8.59 67.60 12.18 62.19Q15.77 56.79 20.51 50.38Q25.24 43.97 30.32 38.04L30.32 38.04Q37.33 29.83 39.33 29.83L39.33 29.83Q39.65 29.83 39.94 29.99Q40.23 30.15 40.31 30.15Q40.38 30.15 40.45 30.08L40.45 30.08Q40.77 29.69 41.71 29.69Q42.65 29.69 43.54 30.05Q44.43 30.42 44.43 30.88L44.43 30.88Q44.43 31.18 41.99 35.55L41.99 35.55Q33.81 50.05 31.01 55.47L31.01 55.47Q33.69 52.22 38.68 46.85Q43.68 41.48 49.17 36.13L49.17 36.13Q56.32 29.20 57.71 29.20L57.71 29.20Q58.28 29.20 59.13 29.44L59.13 29.44Q60.64 29.88 62.04 29.88L62.04 29.88Q62.43 29.96 62.71 30.21Q62.99 30.47 62.99 30.74Q62.99 31.01 62.84 31.18L62.84 31.18Q54.91 41.72 49.46 49.78Q44.02 57.84 42.75 60.67L42.75 60.67Q45.31 60.13 50.39 54.54L50.39 54.54Q50.61 54.25 50.71 54.15Q50.81 54.05 50.88 53.96L50.88 53.96Q51.29 53.47 51.51 54.57L51.51 54.57Q51.61 55.20 51.65 55.46Q51.68 55.71 51.72 55.99Q51.76 56.27 51.76 56.37ZM65.28 40.38L65.28 40.38L65.99 40.21Q66.14 40.21 66.14 40.49Q66.14 40.77 65.30 41.41Q64.45 42.04 63.27 42.04Q62.08 42.04 61.41 41.36Q60.74 40.67 60.74 39.58L60.74 39.58Q60.74 37.26 63.77 34.97Q66.80 32.69 71.22 31.31Q75.63 29.93 79.69 29.93L79.69 29.93Q85.62 29.93 88.51 31.86Q91.41 33.79 91.41 37.04L91.41 37.04Q91.41 41.19 85.64 45.07L85.64 45.07Q82.62 47.12 79.10 48.34L79.10 48.34Q82.96 48.75 85.25 50.83L85.25 50.83Q86.99 52.39 86.99 54.81Q86.99 57.23 84.68 59.73Q82.37 62.23 78.54 63.88Q74.71 65.53 70.70 65.53L70.70 65.53Q66.09 65.53 63.92 63.50L63.92 63.50Q62.94 62.57 62.94 61.85Q62.94 61.13 63.31 60.33L63.31 60.33Q61.52 63.55 60.69 65.19L60.69 65.19Q60.33 65.92 59.22 65.92Q58.11 65.92 57.50 65.33Q56.88 64.75 56.88 64.01Q56.88 63.28 57.10 62.72L57.10 62.72Q58.20 59.84 64.86 49.23Q71.51 38.62 73.00 36.94L73.00 36.94Q73.78 35.99 76.54 35.99L76.54 35.99Q77.64 35.99 77.64 36.47L77.64 36.47Q77.64 36.84 74.39 41.97Q71.14 47.09 71.00 47.34L71.00 47.34Q74.39 46.36 77.94 44.67Q81.49 42.97 84.14 40.82Q86.79 38.67 86.79 36.94L86.79 36.94Q86.79 34.08 80.59 34.08L80.59 34.08Q74.10 34.08 68.09 37.52L68.09 37.52Q66.60 38.38 65.82 39.09Q65.04 39.79 65.04 40.09Q65.04 40.38 65.28 40.38ZM69.68 52.05L69.68 52.05Q69.24 52.05 68.70 51.03L68.70 51.03Q66.38 54.74 63.84 59.28L63.84 59.28Q64.99 57.69 67.19 57.69L67.19 57.69Q68.65 57.69 68.65 58.06L68.65 58.06Q68.65 58.20 68.33 58.33L68.33 58.33Q67.36 58.69 67.36 59.42L67.36 59.42Q67.36 61.18 71.09 61.18L71.09 61.18Q76.15 61.18 80.25 57.67L80.25 57.67Q82.45 55.81 82.45 54.42L82.45 54.42Q82.45 53.56 80.66 52.54L80.66 52.54Q78.59 51.39 74.34 51.39L74.34 51.39Q71.39 51.39 70.56 51.72Q69.73 52.05 69.68 52.05Z" fill="#ffffff"></path></svg>